<svg width="211" height="211" viewBox="0 0 211 211" fill="none" xmlns="http://www.w3.org/2000/svg">
<path d="M119.574 49.0354C120.169 63.2803 99.0003 55.4282 91.6923 64.3528C81.8304 76.3993 108.92 83.1785 116.297 84.3145" stroke="#FF99C9" stroke-width="4.94069" stroke-linecap="round" stroke-linejoin="round"/>
<path d="M88.1804 68.4639C85.1525 68.5285 81.7496 69.0303 79.0687 70.5609C74.0901 73.4059 70.7918 78.661 69.361 84.0006C62.3245 110.261 109.458 120.386 128.124 118.813C137.298 118.039 149.807 112.287 143.089 102.848" stroke="#FF99C9" stroke-width="4.94069" stroke-linecap="round" stroke-linejoin="round"/>
<path d="M119.986 49.7646C118.633 62.0094 142.649 66.0329 141.894 77.9119C141.625 82.1637 136.615 81.5855 136.056 83.6714C135.522 85.6662 140.912 83.3305 142.143 84.9968C145.642 89.7286 146.886 96.2412 143.042 101.106" stroke="#FF99C9" stroke-width="4.94069" stroke-linecap="round" stroke-linejoin="round"/>
<path d="M64.1297 94.1917C54.7521 105.772 68.6532 103.774 68.8616 104.01C71.2653 106.735 68.1395 114.906 76.3792 114.88C77.7206 114.875 83.1128 110.727 84.1837 112.085C86.5343 115.067 84.603 119.881 95.4033 120.588C96.9852 120.692 103.082 115.482 103.667 116.085C106.173 118.667 102.567 124.842 108.781 124.478C112.208 124.276 115.386 122.405 117.902 120.204C118.499 119.681 119.109 117.877 119.581 118.516C121.429 121.015 119.127 124.807 123.416 125.956C127.256 126.985 133.08 123.541 136.201 121.748C137.256 121.143 135.681 129.097 139.998 127.04C146.103 124.132 147.745 117.813 147.822 118.45C148.719 125.866 132.699 163.79 129.688 165.519C122.065 169.896 84.6416 159.844 76.8553 157.758C74.9633 157.251 57.7528 154.297 57.1241 151.249C55.686 144.287 59.1354 103.589 60.3513 96.8445" stroke="#FF99C9" stroke-width="4.94069" stroke-linecap="round" stroke-linejoin="round"/>
<path d="M74.5959 124.836C72.6818 130.032 71.9323 139.8 71.4477 143.172" stroke="#FF99C9" stroke-width="4.94069" stroke-linecap="round" stroke-linejoin="round"/>
<path d="M89.1267 128.111C87.3904 134.423 85.618 140.64 84.724 146.729" stroke="#FF99C9" stroke-width="4.94069" stroke-linecap="round" stroke-linejoin="round"/>
<path d="M103.998 133.952C101.805 139.331 99.722 144.737 98.2191 150.345" stroke="#FF99C9" stroke-width="4.94069" stroke-linecap="round" stroke-linejoin="round"/>
<path d="M117.803 136.414C115.694 140.966 113.988 145.71 112.205 150.381" stroke="#FF99C9" stroke-width="4.94069" stroke-linecap="round" stroke-linejoin="round"/>
<path d="M129.967 137.198C128.227 141.255 126.558 145.368 124.833 149.434" stroke="#FF99C9" stroke-width="4.94069" stroke-linecap="round" stroke-linejoin="round"/>
</svg>
