<svg width="183" height="183" viewBox="0 0 183 183" fill="none" xmlns="http://www.w3.org/2000/svg">
<g clip-path="url(#clip0_502_8089)">
<path d="M73.7842 23.7796C91.2257 19.3733 107.182 22.6857 123.403 30.5759C156.83 46.8406 174.068 103.298 138.26 140.465C113.551 166.109 72.1566 168.17 44.5981 140.902C14.137 110.777 17.963 58.7483 52.4761 33.8975C58.9455 29.2251 66.0116 25.7821 73.7842 23.7796ZM148.201 69.7787C145.194 56.9586 134.84 43.9428 120.566 35.3437C102.283 24.3456 82.474 24.2031 63.4202 34.3582C28.3395 53.0023 19.3698 100.692 44.8382 131.727C62.8482 153.672 93.1934 160.53 117.104 148.058C144.036 134.002 157.336 103.373 148.201 69.7787Z" fill="#FF99C9"/>
<path d="M138.026 93.8255C135.514 115.258 124.811 130.256 104.113 136.069C86.3676 141.038 70.9226 135.745 58.5689 121.448C58.1304 121.806 57.6123 122.266 57.0924 122.619C56.3499 123.138 55.9298 123.464 54.9281 122.718C54.4589 122.362 53.6967 121.712 54.4983 120.615C56.4617 117.872 58.6979 115.349 60.9791 112.894C61.3294 112.506 62.3198 112.214 63.1269 112.933C64.0106 113.738 63.7788 114.468 63.5384 115.067C63.0876 116.176 62.2775 117.141 61.5142 118.281C74.9441 130.312 89.9835 135.687 107.643 129.005C123.22 123.121 131.956 108.063 132.571 92.9094C132.603 92.2328 131.785 91.9711 130.892 91.3288C129.416 90.3082 128.583 90.2909 129.287 87.8314C129.855 86.2631 131.483 86.6551 132.419 86.8585C135.404 87.5282 138.404 88.3541 141.191 89.5843C142.283 90.0667 144.215 90.6978 143.657 92.9044C143.181 95.116 141.47 94.212 139.722 94.1726C139.22 94.0934 138.698 93.9394 138.026 93.8255Z" fill="#FF99C9"/>
<path d="M55.8849 73.5412C56.6913 70.8672 57.7492 68.6333 60.7197 68.4519C63.5588 68.2789 65.2835 70.3282 65.8896 72.4903C67.1132 76.7578 68.2207 81.1901 68.3889 85.6069C68.5655 90.155 67.6667 94.7775 66.9856 99.315C66.5073 102.516 64.6917 103.617 61.9868 102.097C53.2899 97.1603 46.9495 90.1493 44.7398 80.1077C44.1096 77.2575 45.009 74.5317 47.5721 72.8297C50.3394 70.9928 53.0567 71.7609 55.8849 73.5412ZM61.5458 72.532C61.5458 72.532 60.7836 71.8813 59.9348 72.4026C59.2234 72.5398 59.2455 75.7133 59.2176 77.404C59.1879 78.9883 59.5499 80.0401 58.5497 80.4952C56.9196 81.0922 56.6635 79.638 55.7785 79.127C55.3609 78.8648 52.6016 74.8485 50.5785 76.2723C49.2729 77.1831 49.7659 79.3221 50.1813 80.5733C52.2603 86.9361 56.6846 91.682 61.7642 96.6797C62.9044 88.1719 64.9137 76.6258 61.5458 72.532Z" fill="#FF99C9"/>
<path d="M112.266 56.2164C113.812 54.7068 115.298 53.3734 117.087 53.2682C119.744 53.1171 120.951 55.6259 121.79 57.8591C124.47 64.9693 122.961 71.9997 121.175 78.9972C120.77 80.5752 119.994 82.0657 119.651 83.6803C118.664 88.273 114.899 88.4803 112.002 85.543C105.931 79.3412 101.438 71.9423 99.8943 63.1917C99.2935 59.8527 99.68 56.4094 103.067 54.5933C106.466 52.7207 110.247 54.1658 112.266 56.2164ZM114.158 81.2248C115.006 82.8945 115.012 81.4233 115.268 80.9808C116.759 76.5737 118.274 72.1599 118.643 67.6527C118.928 64.1298 119.76 55.1701 116.815 56.841C116.055 57.098 115.892 59.6798 115.54 61.0567C115.245 62.1509 114.531 63.9721 114.077 64.1738C112.271 64.7112 112.054 63.0059 111.452 62.1521C110.055 60.2288 109.228 56.8435 106.268 58.0639C103.334 59.2776 104.585 62.5494 105.571 64.6361C108.201 70.2635 111.267 75.7208 114.158 81.2248Z" fill="#FF99C9"/>
</g>
<defs>
<clipPath id="clip0_502_8089">
<rect width="148.65" height="148.65" fill="white" transform="translate(0 38.4736) rotate(-15)"/>
</clipPath>
</defs>
</svg>
