<svg width="89" height="89" viewBox="0 0 89 89" fill="none" xmlns="http://www.w3.org/2000/svg">
<path d="M59.1123 57.656C59.71 57.5487 60.2311 57.4567 60.7522 57.3801C64.4917 56.7977 66.8519 59.3112 66.0703 63.066C65.3193 66.7442 63.0664 69.4262 60.1698 71.6025C53.1966 76.8286 45.1045 78.2233 36.66 78.1926C34.3304 78.1773 33.3649 76.9819 33.9013 74.729C36.0469 65.748 39.296 57.2268 45.3957 50.1463C46.9436 48.3378 49.2425 46.8512 51.4954 46.039C56.5529 44.1999 60.9361 48.0467 60.1851 53.38C60.0012 54.79 59.4955 56.154 59.1123 57.656ZM37.2883 74.8822C39.5872 74.637 41.457 74.4684 43.3267 74.2232C49.2578 73.4416 54.7598 71.4799 59.2503 67.4645C60.8442 66.0239 62.0243 63.9549 62.8978 61.9625C63.5875 60.3993 62.622 59.6177 60.9821 60.2154C59.5568 60.7211 58.2847 61.6254 56.8594 62.1311C56.0931 62.407 54.8977 62.5756 54.392 62.1771C53.9169 61.7939 53.9169 60.5525 54.0855 59.7709C54.2694 58.8361 54.8977 58.0085 55.2656 57.1042C55.8479 55.6942 56.5836 54.3149 56.8748 52.8436C57.4725 49.7938 55.1583 47.8321 52.369 49.1348C50.6065 49.9624 48.8747 51.2498 47.6333 52.7364C42.3612 59.1272 40.001 66.9128 37.2883 74.8822Z" fill="#FF99C9"/>
<path d="M29.1498 27.1877C30.2073 26.3908 31.6019 25.2107 33.1345 24.2299C36.4296 22.1149 39.8319 23.3716 40.9201 27.0958C41.8856 30.4368 41.4565 33.7166 40.0925 36.9043C37.3491 43.3565 33.3491 49.0271 29.1805 54.5904C27.9391 56.2302 25.7168 56.3222 24.4907 54.621C22.6823 52.1076 20.9811 49.4869 19.5865 46.7435C16.7665 41.1802 14.4063 35.4024 14.5749 29.0115C14.6209 27.2644 15.2033 25.3793 16.0768 23.862C17.824 20.8428 21.7168 19.9693 24.4601 22.1149C26.4525 23.6628 27.9544 25.8544 29.1498 27.1877ZM26.3605 52.2302C27.6019 50.483 28.828 49.0271 29.7782 47.4025C32.2303 43.2799 34.8204 39.2032 36.8281 34.8507C37.7476 32.843 38.3606 30.5748 37.5637 27.9234C37.1499 26.5441 36.3836 26.069 35.0196 26.6973C33.0426 27.6015 32.0924 29.3487 31.2341 31.2031C30.6977 32.3526 30.7743 34.1763 29.0119 34.161C27.2187 34.1457 27.2034 32.3219 26.5904 31.1112C25.7168 29.3793 24.9505 27.5402 23.7398 26.069C23.0501 25.226 21.3183 24.3984 20.4907 24.705C19.4179 25.1034 18.4524 26.5441 18.0386 27.7395C17.6248 28.9349 17.778 30.4062 17.9773 31.7089C19.096 39.1879 22.5444 45.6707 26.3605 52.2302Z" fill="#FF99C9"/>
<path d="M64.7823 20.4142C66.1616 20.2456 67.2498 20.0157 68.3226 20.0004C71.8628 19.9391 73.8705 22.0694 73.7019 25.6096C73.518 29.2265 71.7402 31.9852 68.8283 33.9776C64.2459 37.1194 59.1424 39.0657 53.6864 40.0772C52.353 40.3225 51.5714 40.1079 51.035 38.3148C49.012 31.6787 49.3951 25.0886 50.8971 18.5291C51.3875 16.4141 52.5982 14.3758 53.8703 12.5673C55.3262 10.4983 57.5485 9.57879 60.1539 10.3298C62.9279 11.142 64.3838 13.1497 64.7516 15.893C64.9509 17.3337 64.7823 18.805 64.7823 20.4142ZM53.4105 36.6443C58.8818 35.3416 64.0313 33.5791 68.2919 29.9622C69.2574 29.1346 69.9778 27.8472 70.4069 26.6211C71.4031 23.7705 70.2383 22.4065 67.2344 22.7284C66.5141 22.805 65.7938 22.9889 65.1041 23.1882C62.2535 24.0157 61.5179 23.4793 61.4106 20.4755C61.3493 18.8356 61.4259 17.1498 61.0428 15.5865C60.3684 12.8279 57.6711 12.1535 56.0159 14.4064C54.8358 16.0157 53.9622 18.008 53.4871 19.9697C52.1844 25.4411 53.0274 30.9584 53.4105 36.6443Z" fill="#FF99C9"/>
</svg>
