<svg width="56" height="61" viewBox="0 0 56 61" fill="none" xmlns="http://www.w3.org/2000/svg">
<path d="M30.5274 0.161202C30.2369 0.501048 30.2853 0.84089 30.6564 1.06745C31.4471 1.55834 31.7214 3.44638 31.1405 4.33375C30.5919 5.1456 29.5593 5.42881 26.3807 5.57985C24.0572 5.71201 23.2989 5.80641 22.6374 6.12738C21.4595 6.65603 20.6366 7.46788 20.088 8.65734C19.6847 9.50695 19.604 9.86568 19.604 10.9796L19.6201 12.3012L18.2486 12.6222C16.1027 13.1131 14.4247 14.1893 12.7305 16.1528C11.0686 18.0975 10.2618 19.759 9.97141 21.9113L9.77779 23.2896L8.61607 23.1952C6.48626 23.0441 4.13055 24.0637 2.43638 25.9139C0.774479 27.7076 0 29.841 0 32.6731C0 36.8645 2.12982 40.4707 6.11515 42.944L7.40595 43.7558L7.74479 45.1152C8.69675 49.0234 10.2618 54.2533 10.9718 55.9714C11.8753 58.1049 12.3917 58.709 13.9729 59.3887C14.8603 59.7852 17.3451 60.4083 18.8456 60.6159C20.3462 60.8425 19.7331 60.446 17.8775 59.9929C15.9091 59.5398 14.4408 58.8034 13.4243 57.7839C12.7144 57.0853 11.9721 55.4239 11.0847 52.6107C10.3748 50.3828 8.8581 44.6432 8.93877 44.5488C8.97104 44.511 9.71325 44.7376 10.6007 45.0586C13.3598 46.0592 18.1518 46.9466 20.8464 46.9466C22.5986 46.9466 30.6694 46.8677 18.4584 45.2474C12.6821 44.4733 8.05135 42.8118 4.98571 40.414C3.43675 39.1868 1.87166 37.1855 1.45215 35.8827C1.04877 34.5989 1.0165 32.3521 1.38761 30.8795C2.04914 28.274 4.09828 26.0839 6.5508 25.3475C7.61571 25.0266 9.45509 24.951 9.81006 25.2154C9.92301 25.2909 10.1973 25.7818 10.3909 26.2915C11.0363 27.8775 12.2303 28.9914 13.6018 29.2935C14.6828 29.539 14.8926 28.9725 14.4247 27.1034C14.0697 25.744 12.8596 24.2902 11.6333 23.7993L10.7782 23.4406L10.8588 22.4211C10.9879 20.9484 11.7947 19.1925 13.0532 17.6255C14.8119 15.4165 16.4577 14.4158 19.0877 13.8872L20.1848 13.6795L21.1207 14.7179C23.2182 17.0591 26.6872 18.1919 27.8651 16.8891C28.3653 16.3416 28.333 15.7375 27.736 14.9445C26.8809 13.8305 23.9604 12.3956 22.4921 12.3956C21.3788 12.3956 21.0077 12.2068 20.8787 11.5649C20.7173 10.7531 20.7818 9.62024 20.9916 9.12935C21.6854 7.5434 22.9117 6.92035 25.3319 6.92035C29.7852 6.92035 31.7859 5.95746 32.3183 3.54078L32.5442 2.54012L33.1251 3.35197C34.4643 5.27776 35.4001 8.54406 35.3033 10.9796C35.2549 12.2635 35.2388 12.3012 34.7225 12.6222C33.6091 13.2641 33.2864 13.9438 33.8189 14.548C34.4159 15.2654 35.9326 14.5669 36.3037 13.4152C36.4812 12.8676 37.659 12.66 39.0466 12.9621C42.2414 13.6417 44.0807 16.4738 44.0323 20.6652C44.0001 23.2141 44.0485 23.1385 42.1929 23.7616C38.6271 24.9699 34.9967 27.6132 34.8515 29.1047C34.7709 29.9354 34.8677 30.162 35.4163 30.4452C36.6425 31.0305 38.9175 30.634 40.7247 29.5201C42.0155 28.7271 43.6774 26.8579 44.3712 25.4419L44.9359 24.3091L46.0976 24.2902C48.179 24.2902 49.97 25.1965 51.4221 26.9712C52.9227 28.8404 53.8263 31.5403 53.6972 33.7681C53.4713 37.261 50.6638 40.414 45.9363 42.5097C42.8706 43.8502 38.3044 45.0774 33.0121 45.9837C31.1566 46.3047 29.9304 46.5879 29.882 46.72C29.6561 47.5319 39.2402 46.0215 43.5483 44.5677C43.9194 44.4355 43.9355 44.4544 43.8226 45.1718C43.516 47.1165 42.0155 53.8568 41.5153 55.4994C41.2087 56.5189 40.9828 57.3874 41.0151 57.4252C41.483 57.9727 42.9029 53.7435 45.2102 45.0774L45.5813 43.6614L46.4687 43.3216C49.4053 42.1699 53.0195 39.3567 54.1812 37.3176C55.6818 34.7122 55.7463 31.7857 54.3748 28.6327C52.8743 25.1965 50.4218 23.3651 46.8559 23.063L45.3393 22.9309L45.4522 22.4211C45.8072 20.7974 45.4361 17.6821 44.6616 15.9074C43.5321 13.3019 40.8376 11.716 37.772 11.8481L36.7071 11.9048L36.6102 10.1111C36.5618 9.12935 36.4489 8.07205 36.3844 7.76997C35.9971 6.05186 33.9964 2.63452 32.4313 1.04858C31.4632 0.0668014 30.8501 -0.216404 30.5274 0.161202ZM34.6902 13.8117C34.5772 13.9816 34.4482 14.0571 34.4159 14.0193C34.3029 13.8872 34.5288 13.5285 34.7225 13.5285C34.8193 13.5285 34.8193 13.6417 34.6902 13.8117ZM24.864 14.6046C25.461 14.8501 26.1871 15.3032 26.4775 15.6053C27.0261 16.1528 27.0261 16.1528 26.6227 16.1528C25.7353 16.1717 23.5893 15.1333 22.7503 14.3026L22.3469 13.8872L23.073 14.0193C23.4764 14.076 24.2831 14.3403 24.864 14.6046ZM42.677 25.7251C41.4346 27.8208 39.095 29.5767 37.4654 29.6145C36.9975 29.6334 36.5296 29.539 36.4328 29.4257C36.1101 29.0481 37.9333 27.16 39.5307 26.1783C40.8376 25.4042 43.0804 24.4224 43.2256 24.5923C43.2579 24.6301 43.0158 25.1398 42.677 25.7251ZM13.0209 26.7824C13.1661 26.9712 13.2468 27.1789 13.1984 27.2356C13.0209 27.4244 12.1335 26.7635 11.7624 26.1405L11.3913 25.5552L12.069 25.9895C12.4562 26.2349 12.8757 26.5936 13.0209 26.7824Z" fill="#690233"/>
<path d="M40.5088 6.16878C40.1538 6.6219 40.17 7.01839 40.5249 7.396C40.9122 7.81136 41.251 7.79248 41.5737 7.37712C41.9287 6.92399 41.9125 6.5275 41.5576 6.1499C41.1703 5.73453 40.8315 5.75341 40.5088 6.16878Z" fill="#690233"/>
<path d="M26.6818 8.18862C26.4559 8.50959 26.5688 9.00047 26.9238 9.15152C27.1658 9.2648 27.6499 8.94383 27.6499 8.64175C27.6499 8.56623 27.5369 8.35854 27.3917 8.2075C27.0851 7.82989 26.9399 7.82989 26.6818 8.18862Z" fill="#690233"/>
<path d="M40.283 9.34095C40.2346 9.49199 40.2668 9.71855 40.3637 9.83183C40.6057 10.115 41.0574 9.68079 40.9284 9.30319C40.8154 8.94446 40.4121 8.96334 40.283 9.34095Z" fill="#690233"/>
<path d="M43.2032 10.2467C43.0258 10.7753 43.2194 11.2096 43.655 11.2662C44.1552 11.3417 44.4295 10.7187 44.1068 10.2655C43.8486 9.90681 43.3162 9.90681 43.2032 10.2467Z" fill="#690233"/>
<path d="M9.15811 15.2878C8.99676 15.6087 9.36786 15.9674 9.59375 15.7031C9.78736 15.4766 9.65829 15.0801 9.41626 15.0801C9.33559 15.0801 9.22265 15.1745 9.15811 15.2878Z" fill="#690233"/>
<path d="M6.23799 16.0238C6.04438 16.1182 5.83462 16.4203 5.77008 16.7035C5.46352 18.1006 7.14155 18.6482 7.56105 17.2699C7.69013 16.7979 7.65786 16.6846 7.27063 16.2881C6.77045 15.7972 6.75431 15.7784 6.23799 16.0238Z" fill="#690233"/>
<path d="M37.4916 18.9512C37.3303 19.1778 37.3303 19.2911 37.4916 19.5176C37.8143 19.9896 38.379 19.8008 38.379 19.2344C38.379 18.668 37.8143 18.4792 37.4916 18.9512Z" fill="#690233"/>
<path d="M21.9865 23.557C21.6154 23.9913 21.5186 24.2745 21.5186 24.8975C21.5186 25.5206 21.6154 25.8038 21.9865 26.238C23.0352 27.4464 24.7456 26.6156 24.7456 24.8975C24.7456 24.2745 24.6487 23.9913 24.2776 23.557C23.9065 23.1228 23.6645 23.0095 23.1321 23.0095C22.5996 23.0095 22.3576 23.1228 21.9865 23.557Z" fill="#690233"/>
<path d="M24.0041 33.0918C23.8105 33.6771 24.0041 34.0547 24.5043 34.0547C24.9399 34.0547 24.9883 33.998 24.9883 33.4883C24.9883 33.0163 24.9238 32.9219 24.5366 32.8652C24.2623 32.8275 24.0686 32.903 24.0041 33.0918Z" fill="#690233"/>
<path d="M34.2969 35.0942C33.0545 35.6983 33.8936 37.9262 35.1521 37.3598C35.9911 36.9822 35.9911 35.4718 35.1521 35.0942C34.9101 34.9809 34.7165 34.9054 34.7003 34.9242C34.6842 34.9242 34.5067 34.9998 34.2969 35.0942Z" fill="#690233"/>
<path d="M14.129 37.3588C12.8866 37.963 13.7256 40.1909 14.9841 39.6244C15.8231 39.2468 15.8231 37.7364 14.9841 37.3588C14.7421 37.2455 14.5485 37.17 14.5324 37.1889C14.5162 37.1889 14.3387 37.2644 14.129 37.3588Z" fill="#690233"/>
</svg>
