<svg width="1530" height="1294" viewBox="0 0 1530 1294" fill="none" xmlns="http://www.w3.org/2000/svg">
<path d="M1090.83 765.507L1023.96 994.524C820.149 1074.22 596.484 1079.64 478.52 1004.44L407.926 777.005L1090.83 765.507Z" fill="#FFE4B1"/>
<path d="M946.222 204.237C946.222 204.237 983.934 205.016 1013.28 212.652C1044.95 220.893 1064.13 227.634 1088.28 248.837C1110.85 268.657 1121.69 283.957 1130.63 311.95C1140.27 342.13 1130.63 392.735 1130.63 392.735C1130.63 392.735 1260.33 415.455 1292.1 460.896C1323.86 506.338 1346.11 547.197 1329.16 601.428C1313.77 650.646 1277.79 667.181 1232.98 695.676C1183.46 727.174 1108.57 717.555 1090.04 746.167C1071.51 774.778 1076.81 784.876 1076.81 784.876C1076.81 784.876 795.783 823.852 618.875 798.34C537.642 786.625 489.045 784.315 414.173 752.057C366.404 731.476 334.047 723.15 299.469 685.578C271.816 655.531 259.838 633.572 250.058 594.696C240.573 556.988 235.638 531.655 250.058 495.398C263.923 460.537 282.741 443.591 315.351 423.029C358.593 395.762 445.055 396.101 445.055 396.101C445.055 396.101 450.799 345.399 467.113 317.841C483.289 290.517 498.964 278.524 525.347 259.777C569.589 228.341 657.698 212.652 657.698 212.652C657.698 212.652 645.499 160.853 663.874 136.917C683.006 111.997 710.045 116.416 741.52 109.147C788.148 98.3793 817.279 112.108 864.165 102.415C877.397 99.6797 897.694 94.0002 897.694 94.0002C897.694 94.0002 929.191 119.061 939.164 141.125C949.452 163.887 946.222 204.237 946.222 204.237Z" fill="#FF80BC"/>
<path d="M809.584 2.76892C803.736 8.61511 804.711 14.4613 812.183 18.3588C828.101 26.8032 833.624 59.2821 821.929 74.5471C810.883 88.5131 790.091 93.3848 726.091 95.9832C679.31 98.2566 664.041 99.8806 650.721 105.402C627.005 114.496 610.436 128.462 599.391 148.924C591.269 163.539 589.645 169.71 589.645 188.873L589.969 211.608L562.355 217.129C519.147 225.574 485.36 244.086 451.249 277.865C417.787 311.318 401.543 339.899 395.695 376.925L391.797 400.634L368.406 399.01C325.523 396.412 278.091 413.951 243.98 445.78C210.518 476.635 194.924 513.336 194.924 562.054C194.924 634.157 237.807 696.192 318.051 738.739L344.041 752.705L350.863 776.089C370.03 843.321 401.543 933.287 415.838 962.843C434.03 999.544 444.426 1009.94 476.264 1021.63C494.132 1028.45 544.162 1039.17 574.376 1042.74C604.589 1046.64 592.244 1039.82 554.883 1032.02C515.249 1024.23 485.685 1011.56 465.218 994.022C450.924 982.005 435.98 953.424 418.112 905.03C403.817 866.705 373.279 767.97 374.904 766.346C375.553 765.696 390.497 769.594 408.365 775.115C463.919 792.329 560.406 807.594 614.66 807.594H636.426L627.005 833.252C611.411 876.124 606.213 910.227 606.213 968.364C606.538 1045.34 619.208 1097.3 647.472 1139.85C671.513 1175.58 708.223 1189.54 742.66 1176.23C788.467 1158.69 823.878 1089.83 826.152 1014.16C826.802 993.373 825.827 988.176 821.279 985.253C816.731 982.33 814.132 982.979 807.959 988.826C801.137 995.321 799.837 1000.19 797.888 1027.15C794.315 1078.47 774.172 1128.81 751.431 1144.07C711.472 1170.06 668.914 1138.88 647.147 1067.42C627.005 1000.84 630.579 891.714 654.944 830.654C661.117 815.064 668.589 810.842 691.33 810.842C734.538 810.842 771.573 798.175 782.944 780.312C793.34 763.098 791.716 747.508 778.071 733.867C766.7 722.499 766.376 722.175 742.985 723.799C711.472 725.747 687.756 737.44 666.315 760.824C657.218 770.893 649.746 780.312 649.746 781.936C649.746 786.483 629.604 785.508 566.579 778.363C450.274 765.047 357.035 736.465 295.31 695.217C264.122 674.106 232.609 639.678 224.162 617.268C216.041 595.182 215.391 556.533 222.863 531.199C236.183 486.378 277.442 448.703 326.822 436.036C348.264 430.515 385.299 429.216 392.447 433.763C394.721 435.062 400.244 443.506 404.142 452.276C417.137 479.558 441.178 498.72 468.792 503.917C490.558 508.139 494.782 498.396 485.36 466.242C478.213 442.857 453.848 417.848 429.157 409.404L411.939 403.233L413.563 385.694C416.162 360.361 432.406 330.155 457.746 303.198C493.157 265.198 526.294 247.984 579.249 238.89L601.34 235.317L620.183 253.181C662.416 293.454 732.264 312.942 755.98 290.531C766.051 281.112 765.401 270.719 753.381 257.078C736.162 237.916 677.36 213.232 647.797 213.232C625.381 213.232 617.909 209.984 615.31 198.941C612.061 184.975 613.36 165.488 617.584 157.043C631.553 129.761 656.244 119.043 704.975 119.043C794.64 119.043 834.924 102.479 845.645 60.906L850.193 43.6923L861.888 57.6581C888.853 90.7865 907.695 146.975 905.746 188.873C904.771 210.958 904.447 211.608 894.051 217.129C871.634 228.172 865.137 239.864 875.858 250.258C887.878 262.599 918.416 250.582 925.888 230.77C929.462 221.351 953.178 217.779 981.117 222.975C1045.44 234.668 1082.48 283.386 1081.5 355.489C1080.85 399.335 1081.83 398.036 1044.47 408.754C972.67 429.541 899.573 475.011 896.65 500.669C895.025 514.96 896.974 518.857 908.02 523.729C932.711 533.798 978.518 526.977 1014.9 507.814C1040.89 494.173 1074.36 462.019 1088.32 437.66L1099.7 418.173L1123.09 417.848C1164.99 417.848 1201.06 433.438 1230.29 463.968C1260.51 496.122 1278.7 542.567 1276.1 580.892C1271.55 640.978 1215.03 695.217 1119.84 731.269C1058.11 754.329 966.172 775.44 859.614 791.03C822.254 796.551 797.563 801.423 796.589 803.696C792.041 817.662 985.015 791.679 1071.76 766.671C1079.23 764.397 1079.55 764.722 1077.28 777.064C1071.11 810.517 1040.89 926.466 1030.82 954.723C1024.65 972.261 1020.1 987.202 1020.75 987.851C1030.17 997.27 1058.76 924.518 1105.22 775.44L1112.69 751.081L1130.56 745.235C1189.69 725.423 1262.46 677.029 1285.85 641.952C1316.06 597.131 1317.36 546.789 1289.75 492.549C1259.53 433.438 1210.15 401.934 1138.36 396.737L1107.82 394.463L1110.09 385.694C1117.24 357.762 1109.77 304.172 1094.17 273.642C1071.43 228.821 1017.18 201.539 955.452 203.813L934.01 204.787L932.061 173.932C931.086 157.043 928.812 138.855 927.513 133.659C919.716 104.103 879.431 45.3162 847.919 18.0339C828.426 1.14502 816.081 -3.72681 809.584 2.76892ZM893.401 237.591C891.127 240.514 888.528 241.813 887.878 241.163C885.604 238.89 890.152 232.719 894.051 232.719C896 232.719 896 234.668 893.401 237.591ZM695.553 251.232C707.573 255.454 722.193 263.249 728.041 268.446C739.086 277.865 739.086 277.865 730.964 277.865C713.096 278.189 669.888 260.326 652.995 246.035L644.873 238.89L659.492 241.163C667.614 242.138 683.858 246.685 695.553 251.232ZM1054.21 442.532C1029.2 478.584 982.091 508.789 949.279 509.438C939.858 509.763 930.436 508.139 928.487 506.191C921.99 499.695 958.7 467.216 990.863 450.327C1017.18 437.011 1062.33 420.122 1065.26 423.045C1065.91 423.694 1061.04 432.464 1054.21 442.532ZM457.096 460.72C460.02 463.968 461.645 467.541 460.67 468.515C457.096 471.763 439.228 460.395 431.756 449.677L424.284 439.609L437.929 447.079C445.726 451.301 454.173 457.472 457.096 460.72ZM768 746.859C787.817 761.474 743.31 784.534 695.553 784.859H677.685L688.731 773.491C701.726 760.175 720.893 750.106 741.035 746.209C761.178 742.311 761.502 742.311 768 746.859Z" fill="#842A65"/>
<path d="M1015.88 111.898C1008.73 119.693 1009.06 126.513 1016.2 133.009C1024 140.154 1030.82 139.83 1037.32 132.684C1044.47 124.889 1044.14 118.069 1036.99 111.573C1029.2 104.428 1022.38 104.752 1015.88 111.898Z" fill="#842A65"/>
<path d="M737.462 146.65C732.914 152.171 735.188 160.616 742.335 163.214C747.209 165.163 756.955 159.642 756.955 154.445C756.955 153.146 754.681 149.573 751.757 146.975C745.584 140.479 742.66 140.479 737.462 146.65Z" fill="#842A65"/>
<path d="M1011.33 166.462C1010.36 169.06 1011.01 172.958 1012.95 174.907C1017.83 179.779 1026.92 172.308 1024.33 165.813C1022.05 159.642 1013.93 159.966 1011.33 166.462Z" fill="#842A65"/>
<path d="M1070.13 182.052C1066.56 191.146 1070.46 198.616 1079.23 199.591C1089.3 200.89 1094.82 190.172 1088.32 182.377C1083.13 176.206 1072.41 176.206 1070.13 182.052Z" fill="#842A65"/>
<path d="M384.65 268.77C381.401 274.292 388.873 280.463 393.421 275.916C397.32 272.018 394.721 265.198 389.848 265.198C388.223 265.198 385.949 266.822 384.65 268.77Z" fill="#842A65"/>
<path d="M325.848 281.437C321.949 283.061 317.726 288.258 316.426 293.13C310.254 317.164 344.04 326.583 352.487 302.873C355.086 294.753 354.436 292.805 346.639 285.984C336.568 277.54 336.243 277.215 325.848 281.437Z" fill="#842A65"/>
<path d="M955.127 331.779C951.878 335.677 951.878 337.626 955.127 341.523C961.624 349.643 972.995 346.395 972.995 336.651C972.995 326.908 961.624 323.66 955.127 331.779Z" fill="#842A65"/>
<path d="M642.924 411.028C635.452 418.498 633.503 423.37 633.503 434.088C633.503 444.806 635.452 449.677 642.924 457.147C664.041 477.934 698.478 463.643 698.478 434.088C698.478 423.37 696.528 418.498 689.056 411.028C681.584 403.557 676.711 401.609 665.99 401.609C655.269 401.609 650.396 403.557 642.924 411.028Z" fill="#842A65"/>
<path d="M683.533 575.046C679.635 585.114 683.533 591.61 693.604 591.61C702.376 591.61 703.35 590.635 703.35 581.866C703.35 573.746 702.051 572.123 694.254 571.148C688.731 570.499 684.833 571.798 683.533 575.046Z" fill="#842A65"/>
<path d="M890.802 609.473C865.787 619.866 882.681 658.191 908.021 648.448C924.914 641.952 924.914 615.969 908.021 609.473C903.148 607.524 899.249 606.225 898.924 606.55C898.599 606.55 895.026 607.849 890.802 609.473Z" fill="#842A65"/>
<path d="M484.711 648.448C459.695 658.841 476.589 697.166 501.929 687.422C518.822 680.927 518.822 654.944 501.929 648.448C497.056 646.499 493.157 645.2 492.832 645.525C492.508 645.525 488.934 646.824 484.711 648.448Z" fill="#842A65"/>
<path d="M175.756 740.688C173.807 743.286 168.609 754.004 164.386 764.722C153.665 792.004 128.325 824.808 74.3959 880.671C20.467 936.86 0 970.313 0 1002.47C0 1025.85 10.7208 1048.91 30.5381 1066.77C50.0305 1084.64 70.8223 1093.73 97.7868 1095.68C121.503 1097.63 136.447 1094.06 153.99 1082.04C160.162 1077.82 166.01 1075.22 166.985 1076.52C167.959 1077.49 168.934 1088.21 168.934 1100.55V1122.64H148.792C123.777 1122.64 107.533 1131.08 92.264 1150.89C63.3503 1188.9 72.7716 1270.74 108.183 1289.25C119.878 1295.43 121.178 1295.43 134.822 1289.9C164.711 1278.54 183.878 1245.08 192 1190.52L195.574 1165.51L220.589 1164.21C237.482 1163.56 249.827 1160.96 259.249 1156.09L273.543 1149.27L284.589 1155.77C310.904 1171.36 351.513 1156.09 374.904 1121.99L387.574 1103.48L394.721 1118.74C410.315 1152.52 442.477 1166.81 479.838 1157.39C505.827 1150.57 529.543 1139.2 529.543 1133.68C529.543 1127.84 515.574 1127.84 503.878 1134.01C498.68 1136.6 487.635 1140.18 479.188 1142.13C439.878 1150.89 416.487 1122.31 409.34 1057.03C407.716 1040.47 406.416 1013.51 407.066 997.595L407.716 968.364H397.97H388.223L385.949 1004.74C383.35 1045.99 377.178 1073.6 363.858 1101.53C338.843 1153.82 299.858 1159.01 283.939 1111.92C277.442 1092.76 275.817 1031.37 280.69 990.125C283.289 966.74 283.289 966.74 275.492 966.74C262.822 966.74 256.975 973.561 253.076 992.723C248.528 1017.41 248.528 1084.31 253.401 1109C256.975 1126.54 256.975 1130.11 253.076 1132.71C245.279 1137.58 228.061 1139.85 213.117 1137.58L199.147 1135.31L196.873 1111.92C192 1053.78 190.701 876.124 194.924 814.09C198.173 765.371 198.173 748.807 195.249 743.286C191.025 735.166 181.279 733.867 175.756 740.688ZM171.533 831.953C169.909 849.816 169.259 903.406 169.584 950.825C170.558 1047.29 171.858 1042.09 146.518 1058.33C118.579 1075.87 76.6701 1068.72 48.731 1041.44C24.6904 1018.06 21.1168 995.971 36.7107 965.116C45.4822 947.253 57.8274 932.313 96.8122 890.415C115.005 870.928 140.02 842.021 151.716 826.432C163.736 810.842 173.807 798.5 174.132 798.825C174.457 799.149 173.482 814.09 171.533 831.953ZM172.832 1147.97C176.406 1151.54 170.558 1200.26 163.736 1223C158.538 1241.51 139.371 1265.55 129.949 1265.55C109.807 1265.55 95.1878 1208.38 106.558 1174.28C110.457 1162.91 123.452 1147.97 133.198 1144.07C139.695 1141.48 169.259 1144.4 172.832 1147.97Z" fill="#842A65"/>
<path d="M1109.77 805.32C1094.17 816.688 1082.8 922.569 1086.38 1028.45C1087.35 1063.2 1089.3 1099.9 1090.27 1110.3C1092.55 1128.48 1092.22 1128.48 1081.83 1134.01C1074.03 1137.9 1066.23 1139.2 1054.54 1137.9C1041.22 1136.6 1036.67 1134.33 1027.9 1124.91C1014.25 1109.97 1010.36 1095.36 1010.36 1057.68C1010.36 987.851 988.264 960.569 934.335 964.142C917.117 965.116 910.619 967.39 895.675 977.458C863.188 998.894 844.345 1036.57 844.02 1080.42C843.37 1130.76 868.386 1158.04 914.842 1158.37C939.208 1158.37 963.249 1147.32 979.167 1128.48C989.238 1116.79 990.538 1116.14 992.487 1122.31C995.736 1133.03 1015.88 1148.3 1034.4 1153.49C1050.96 1158.37 1066.88 1157.39 1085.73 1150.25C1089.62 1148.62 1091.57 1151.22 1093.2 1161.29C1095.47 1175.9 1102.29 1180.13 1112.69 1173.31C1119.84 1168.43 1121.79 1162.59 1125.69 1130.76C1129.26 1104.13 1128.93 1104.13 1152.65 1128.16C1168.89 1144.72 1181.56 1154.14 1202.68 1164.54C1247.51 1187.27 1274.48 1186.62 1311.84 1161.29L1331.65 1148.3L1348.87 1154.14C1361.87 1158.69 1376.49 1159.99 1408.32 1159.99C1444.71 1159.99 1453.48 1159.01 1471.67 1152.19C1483.37 1147.97 1496.04 1142.13 1500.26 1139.53C1507.09 1134.98 1507.41 1134.01 1502.86 1129.78C1498.31 1125.24 1496.69 1125.24 1485.64 1130.43C1464.53 1140.83 1441.79 1145.37 1412.87 1145.37C1386.23 1145.37 1353.75 1138.88 1349.85 1132.38C1348.87 1130.76 1356.67 1117.44 1367.39 1103.15C1394.68 1066.45 1407.35 1038.84 1409.3 1011.56C1411.25 985.578 1406.38 975.834 1389.16 969.988C1357.32 959.595 1306.96 996.945 1294.29 1040.47C1286.82 1066.45 1289.1 1096.98 1300.14 1118.42C1309.89 1136.6 1309.56 1136.93 1290.72 1146.67C1260.83 1161.94 1214.38 1145.37 1173.77 1104.45C1149.08 1080.09 1145.5 1073.92 1156.87 1073.92C1169.54 1073.92 1199.76 1056.06 1219.9 1036.57C1269.6 988.826 1289.1 931.013 1267.98 894.312C1254.01 870.278 1220.87 866.705 1194.56 886.517C1179.29 898.21 1158.82 926.791 1152.97 944.005C1145.18 967.714 1143.55 960.569 1143.55 901.458C1143.55 836.5 1139.33 810.842 1127.31 804.346C1119.51 800.124 1116.59 800.124 1109.77 805.32ZM1124.71 922.894C1124.71 977.133 1122.76 1015.78 1119.51 1039.49C1116.59 1058.98 1113.66 1075.54 1113.02 1076.19C1112.37 1076.84 1110.74 1054.43 1109.44 1026.18C1107.17 977.783 1111.72 855.338 1116.59 837.15C1118.21 830.004 1118.86 830.004 1121.79 835.526C1124.06 839.098 1125.04 872.552 1124.71 922.894ZM1247.19 903.731C1252.39 910.227 1254.01 917.048 1254.01 931.013C1254.01 956.996 1239.72 984.603 1211.45 1013.18C1188.39 1036.24 1168.24 1047.61 1150.7 1047.94C1139.98 1047.94 1139.98 1047.61 1141.93 1037.22C1146.8 1016.11 1160.77 977.458 1173.44 951.475C1196.83 903.082 1229.97 881.646 1247.19 903.731ZM964.548 981.356C978.518 988.501 985.34 1006.36 986.964 1039.82C988.589 1075.22 981.441 1097.63 961.624 1120.36C946.03 1137.9 933.685 1143.42 914.193 1141.15C895.025 1139.2 882.03 1126.86 875.533 1105.1C869.035 1083.34 869.36 1065.48 877.157 1040.14C892.751 990.45 931.736 964.142 964.548 981.356ZM1385.26 986.877C1392.08 996.621 1391.76 1007.34 1383.63 1033.32C1376.49 1057.03 1339.78 1114.52 1331.98 1114.52C1329.06 1114.52 1324.83 1107.7 1321.26 1098.28C1307.94 1060.28 1326.13 1007.66 1359.27 987.851C1375.84 977.783 1379.09 977.783 1385.26 986.877Z" fill="#842A65"/>
<path d="M550.335 1119.72C547.087 1125.24 554.559 1131.41 559.107 1126.86C563.005 1122.96 560.406 1116.14 555.533 1116.14C553.909 1116.14 551.635 1117.77 550.335 1119.72Z" fill="#842A65"/>
<path d="M1518.46 1119.72C1515.21 1125.24 1522.68 1131.41 1527.23 1126.86C1531.13 1122.96 1528.53 1116.14 1523.65 1116.14C1522.03 1116.14 1519.76 1117.77 1518.46 1119.72Z" fill="#842A65"/>
</svg>
