<svg width="51" height="53" viewBox="0 0 51 53" fill="none" xmlns="http://www.w3.org/2000/svg">
<path d="M39.0075 21.9831C30.3409 20.4769 13.9075 15.1548 17.5075 5.91643C22.0075 -5.6315 32.5078 6.9206 27.0078 5.91643C21.5078 4.91226 17.0072 11.4389 39.0075 21.9831Z" fill="#690233"/>
<path d="M39.0075 21.9831L38.8363 22.9683L39.4397 21.0813L39.0075 21.9831ZM17.5075 5.91643L16.5758 5.55334L17.5075 5.91643ZM39.1788 20.9979C34.9042 20.255 28.7527 18.5742 24.1487 15.9782C21.8425 14.6779 20.0146 13.1975 18.9708 11.5721C17.9594 9.99712 17.665 8.26658 18.4393 6.27952L16.5758 5.55334C15.5501 8.18545 15.9598 10.5846 17.288 12.6528C18.5837 14.6706 20.7308 16.3471 23.1664 17.7204C28.0457 20.4716 34.4442 22.205 38.8363 22.9683L39.1788 20.9979ZM18.4393 6.27952C19.4979 3.56298 20.8172 2.48644 21.9532 2.14309C23.1147 1.79199 24.3744 2.11812 25.4761 2.80953C26.6038 3.51728 27.3418 4.46679 27.5266 5.0286C27.6249 5.32758 27.4816 5.19398 27.6654 5.01488C27.8007 4.88301 27.8007 5.04467 27.1874 4.93269L26.8282 6.90017C27.5899 7.03924 28.4649 7.0283 29.0612 6.4473C29.7059 5.81907 29.6094 4.9598 29.4264 4.40367C29.0487 3.25526 27.9116 1.97677 26.5392 1.11551C25.1409 0.237904 23.2755 -0.345987 21.3745 0.228633C19.4478 0.810995 17.7672 2.49592 16.5758 5.55334L18.4393 6.27952ZM27.1874 4.93269C25.6342 4.64911 24.012 4.86732 22.8706 5.71895C22.2861 6.15513 21.8349 6.75633 21.6239 7.5084C21.4143 8.25568 21.4619 9.07827 21.746 9.93414C22.3038 11.6148 23.8064 13.5362 26.4512 15.6625C29.1166 17.8054 33.0332 20.2287 38.5753 22.8849L39.4397 21.0813C33.9817 18.4654 30.2107 16.1188 27.7043 14.1038C25.1773 12.0721 24.0237 10.4477 23.6441 9.30411C23.4595 8.7479 23.4682 8.33885 23.5496 8.04866C23.6296 7.76326 23.7996 7.52116 24.0667 7.32192C24.6285 6.90272 25.6314 6.68167 26.8282 6.90017L27.1874 4.93269Z" fill="#690233"/>
<path d="M39.0075 30.0179C30.3409 31.5241 13.9075 36.8462 17.5075 46.0845C22.0075 57.6325 32.5078 45.0804 27.0078 46.0845C21.5078 47.0887 17.0072 40.5621 39.0075 30.0179Z" fill="#690233"/>
<path d="M39.0075 30.0179L38.8363 29.0326L39.4397 30.9196L39.0075 30.0179ZM17.5075 46.0845L16.5758 46.4476L17.5075 46.0845ZM39.1788 31.0031C34.9042 31.746 28.7527 33.4268 24.1487 36.0227C21.8425 37.3231 20.0146 38.8034 18.9708 40.4289C17.9594 42.0039 17.665 43.7344 18.4393 45.7215L16.5758 46.4476C15.5501 43.8155 15.9598 41.4164 17.288 39.3482C18.5837 37.3304 20.7308 35.6539 23.1664 34.2806C28.0457 31.5294 34.4442 29.796 38.8363 29.0326L39.1788 31.0031ZM18.4393 45.7215C19.4979 48.438 20.8172 49.5145 21.9532 49.8579C23.1147 50.209 24.3744 49.8829 25.4761 49.1914C26.6038 48.4837 27.3418 47.5342 27.5266 46.9724C27.6249 46.6734 27.4816 46.807 27.6654 46.9861C27.8007 47.118 27.8007 46.9563 27.1874 47.0683L26.8282 45.1008C27.5899 44.9617 28.4649 44.9727 29.0612 45.5537C29.7059 46.1819 29.6094 47.0412 29.4264 47.5973C29.0487 48.7457 27.9116 50.0242 26.5392 50.8855C25.1409 51.7631 23.2755 52.347 21.3745 51.7723C19.4478 51.19 17.7672 49.5051 16.5758 46.4476L18.4393 45.7215ZM27.1874 47.0683C25.6342 47.3519 24.012 47.1337 22.8706 46.282C22.2861 45.8459 21.8349 45.2446 21.6239 44.4926C21.4143 43.7453 21.4619 42.9227 21.746 42.0668C22.3038 40.3862 23.8064 38.4648 26.4512 36.3385C29.1166 34.1956 33.0332 31.7723 38.5753 29.1161L39.4397 30.9196C33.9817 33.5355 30.2107 35.8822 27.7043 37.8972C25.1773 39.9288 24.0237 41.5533 23.6441 42.6969C23.4595 43.2531 23.4682 43.6621 23.5496 43.9523C23.6296 44.2377 23.7996 44.4798 24.0667 44.6791C24.6285 45.0983 25.6314 45.3193 26.8282 45.1008L27.1874 47.0683Z" fill="#690233"/>
<path d="M36 26.2805C27.9792 22.3072 0.999959 19.0253 1 26.2805C1.00004 33.5356 31.625 28.3532 36 26.2805Z" fill="#690233"/>
<path d="M36 26.2805L36.4281 27.1842L38.2933 26.3005L36.4439 25.3844L36 26.2805ZM36.4439 25.3844C34.3233 24.3339 31.0338 23.3633 27.3491 22.6045C23.6461 21.8421 19.472 21.2792 15.5451 21.0712C11.6351 20.8642 7.89802 21.0047 5.1028 21.6897C3.70911 22.0312 2.46706 22.5272 1.55394 23.2506C0.609818 23.9986 -7.22753e-06 25.011 0 26.2805L2 26.2805C2 25.7361 2.23326 25.264 2.79589 24.8183C3.38952 24.348 4.31788 23.9412 5.5788 23.6322C8.09283 23.0162 11.6018 22.8652 15.4393 23.0684C19.2598 23.2707 23.3343 23.8198 26.9458 24.5635C30.5755 25.3108 33.6663 26.2404 35.5561 27.1765L36.4439 25.3844ZM0 26.2805C7.5935e-06 27.6142 0.732817 28.6082 1.78038 29.2875C2.79283 29.9441 4.16137 30.3582 5.68519 30.6184C8.7485 31.1416 12.812 31.1011 16.9381 30.7753C21.0808 30.4481 25.3556 29.8273 28.8726 29.1575C32.3417 28.4968 35.201 27.7655 36.4281 27.1842L35.5719 25.3767C34.6115 25.8317 32.002 26.5255 28.4985 27.1928C25.0429 27.8509 20.8411 28.4609 16.7807 28.7815C12.7036 29.1035 8.83748 29.1278 6.02188 28.647C4.60624 28.4052 3.54802 28.0501 2.86857 27.6095C2.22423 27.1916 2 26.7605 2 26.2805L0 26.2805Z" fill="#690233"/>
<ellipse cx="46.5" cy="25.4982" rx="4.5" ry="4.51875" fill="#690233"/>
</svg>
