<svg width="51" height="52" viewBox="0 0 51 52" fill="none" xmlns="http://www.w3.org/2000/svg">
<path d="M11.9925 21.896C20.6591 20.396 37.0925 15.096 33.4925 5.89603C28.9925 -5.60397 18.4922 6.89603 23.9922 5.89603C29.4922 4.89603 33.9928 11.3956 11.9925 21.896Z" fill="#690233"/>
<path d="M11.9925 21.896L12.163 22.8814L11.5617 20.9935L11.9925 21.896ZM33.4925 5.89603L34.4237 5.53163L33.4925 5.89603ZM11.8219 20.9107C16.0968 20.1708 22.2487 18.4969 26.8529 15.9116C29.1593 14.6165 30.9869 13.1424 32.0302 11.5244C33.0407 9.95731 33.3345 8.23665 32.5612 6.26042L34.4237 5.53163C35.4504 8.1554 35.0401 10.5472 33.711 12.6083C32.4148 14.6184 30.2673 16.288 27.8321 17.6555C22.953 20.3951 16.5549 22.1212 12.163 22.8814L11.8219 20.9107ZM32.5612 6.26042C31.5034 3.55696 30.1848 2.48485 29.0479 2.14265C27.8849 1.79255 26.624 2.11799 25.5223 2.80653C24.3942 3.51158 23.6572 4.45677 23.473 5.01435C23.3752 5.31065 23.5188 5.17402 23.3331 4.9938C23.198 4.86266 23.1992 5.02381 23.8133 4.91216L24.1711 6.8799C23.4102 7.01824 22.5364 7.00752 21.9403 6.42911C21.2937 5.80163 21.3905 4.94234 21.5739 4.38707C21.9523 3.24153 23.0904 1.96797 24.4623 1.11052C25.8607 0.236564 27.7249 -0.344246 29.6244 0.227529C31.5502 0.807202 33.2316 2.48509 34.4237 5.53163L32.5612 6.26042ZM23.8133 4.91216C25.3656 4.62993 26.9867 4.847 28.1278 5.69485C28.7123 6.1292 29.1643 6.72852 29.3758 7.47922C29.586 8.22523 29.5381 9.04612 29.2536 9.89955C28.6953 11.5749 27.1918 13.4889 24.5472 15.6062C21.8817 17.7402 17.9652 20.1534 12.4232 22.7985L11.5617 20.9935C17.0199 18.3885 20.7909 16.0515 23.2973 14.0449C25.8245 12.0215 26.9772 10.4043 27.3563 9.26715C27.5405 8.71436 27.5316 8.30873 27.4507 8.02157C27.3711 7.7391 27.202 7.49863 26.9349 7.3002C26.3728 6.88249 25.3688 6.66212 24.1711 6.8799L23.8133 4.91216Z" fill="#690233"/>
<path d="M11.9925 29.8969C20.6591 31.3969 37.0925 36.6969 33.4925 45.8969C28.9925 57.3969 18.4922 44.8969 23.9922 45.8969C29.4922 46.8969 33.9928 40.3974 11.9925 29.8969Z" fill="#690233"/>
<path d="M11.9925 29.8969L12.163 28.9116L11.5617 30.7994L11.9925 29.8969ZM33.4925 45.8969L34.4237 46.2613L33.4925 45.8969ZM11.8219 30.8823C16.0968 31.6222 22.2487 33.2961 26.8529 35.8814C29.1593 37.1765 30.9869 38.6506 32.0302 40.2686C33.0407 41.8357 33.3345 43.5563 32.5612 45.5325L34.4237 46.2613C35.4504 43.6376 35.0401 41.2457 33.711 39.1847C32.4148 37.1745 30.2673 35.5049 27.8321 34.1375C22.953 31.3978 16.5549 29.6717 12.163 28.9116L11.8219 30.8823ZM32.5612 45.5325C31.5034 48.236 30.1848 49.3081 29.0479 49.6503C27.8849 50.0004 26.624 49.675 25.5223 48.9864C24.3942 48.2814 23.6572 47.3362 23.473 46.7786C23.3752 46.4823 23.5188 46.619 23.3331 46.7992C23.198 46.9303 23.1992 46.7692 23.8133 46.8808L24.1711 44.9131C23.4102 44.7747 22.5364 44.7855 21.9403 45.3639C21.2937 45.9913 21.3905 46.8506 21.5739 47.4059C21.9523 48.5514 23.0904 49.825 24.4623 50.6824C25.8607 51.5564 27.7249 52.1372 29.6244 51.5654C31.5502 50.9858 33.2316 49.3079 34.4237 46.2613L32.5612 45.5325ZM23.8133 46.8808C25.3656 47.163 26.9867 46.946 28.1278 46.0981C28.7123 45.6638 29.1643 45.0644 29.3758 44.3137C29.586 43.5677 29.5381 42.7468 29.2536 41.8934C28.6953 40.2181 27.1918 38.3041 24.5472 36.1868C21.8817 34.0528 17.9652 31.6396 12.4232 28.9945L11.5617 30.7994C17.0199 33.4045 20.7909 35.7415 23.2973 37.7481C25.8245 39.7715 26.9772 41.3887 27.3563 42.5258C27.5405 43.0786 27.5316 43.4842 27.4507 43.7714C27.3711 44.0539 27.202 44.2943 26.9349 44.4928C26.3728 44.9105 25.3688 45.1308 24.1711 44.9131L23.8133 46.8808Z" fill="#690233"/>
<path d="M15 26.1757C23.0208 22.219 50 18.9507 50 26.1757C50 33.4008 19.375 28.2398 15 26.1757Z" fill="#690233"/>
<path d="M15 26.1757L14.5733 27.0801L12.6989 26.1958L14.5576 25.2789L15 26.1757ZM14.5576 25.2789C16.678 24.2329 19.9671 23.2664 23.6517 22.5108C27.3545 21.7515 31.5284 21.191 35.4552 20.9839C39.3649 20.7778 43.1016 20.9178 45.8963 21.5997C47.2896 21.9397 48.5314 22.4336 49.4445 23.154C50.3885 23.8988 51 24.9083 51 26.1757L49 26.1757C49 25.6369 48.7684 25.1681 48.2057 24.7241C47.612 24.2558 46.6834 23.8505 45.4221 23.5427C42.9076 22.9291 39.3981 22.7788 35.5605 22.9812C31.7398 23.1826 27.665 23.7295 24.0534 24.4701C20.4235 25.2144 17.3325 26.1402 15.4424 27.0725L14.5576 25.2789ZM51 26.1757C51 27.5077 50.2651 28.4986 49.218 29.1748C48.2058 29.8285 46.8376 30.2408 45.3141 30.4999C42.2513 31.0208 38.1882 30.9805 34.0622 30.6561C29.9196 30.3303 25.6451 29.712 22.1281 29.045C18.659 28.3871 15.8001 27.6589 14.5733 27.0801L15.4267 25.2713C16.3874 25.7246 18.9972 26.4156 22.5008 27.08C25.9565 27.7354 30.1585 28.3429 34.219 28.6622C38.2961 28.9829 42.1627 29.0071 44.9788 28.5282C46.3948 28.2874 47.4534 27.9336 48.133 27.4947C48.7779 27.0782 49 26.65 49 26.1757L51 26.1757Z" fill="#690233"/>
<circle r="4.5" transform="matrix(-1 0 0 1 4.5 25.3965)" fill="#690233"/>
</svg>
