<svg width="100" height="100" viewBox="0 0 100 100" fill="none" xmlns="http://www.w3.org/2000/svg">
<path d="M48.5596 49.2876C48.7679 48.4542 48.8894 47.7771 49.1151 47.1174C51.3721 40.4508 55.0005 34.5133 59.1325 28.8709C59.6186 28.2112 60.2262 27.5862 60.9033 27.1695C61.2679 26.9438 61.9971 26.9785 62.4137 27.2042C62.7262 27.3778 62.9519 28.0549 62.8825 28.4369C62.761 29.166 62.5005 29.9126 62.136 30.5723C59.7401 34.9299 57.3269 39.2702 54.879 43.5931C53.9589 45.2077 52.9867 46.8049 52.0318 48.4021C51.7193 48.9403 51.3721 49.4612 51.0075 49.9473C50.6082 50.5028 50.0005 50.8327 49.3929 50.4681C48.9936 50.2251 48.5596 50.0515 48.5596 49.2876Z" fill="#FF99C9"/>
<path d="M73.1429 75.1383C72.3096 74.9994 71.3373 74.8953 70.3998 74.6869C66.7019 73.8536 63.004 73.0203 59.3235 72.1522C58.5248 71.9612 57.7436 71.6314 57.0318 71.2494C56.0769 70.746 55.7471 70.0342 55.9033 69.2529C56.0596 68.4717 56.6846 67.9856 57.7783 67.9682C58.5248 67.9508 59.3235 67.9682 60.0353 68.1418C64.7054 69.3224 69.3755 70.5376 74.0283 71.7703C74.5491 71.9092 75.0873 72.1522 75.4866 72.4994C76.4936 73.3501 76.1811 74.6869 74.8964 75.0168C74.3929 75.1383 73.82 75.0862 73.1429 75.1383Z" fill="#FF99C9"/>
<path d="M24.3578 28.5932C24.4273 27.7772 24.6009 26.9612 24.8092 26.1626C25.0002 25.4508 25.4863 24.9473 26.2675 24.8779C26.9273 24.8258 27.6391 25.4855 27.7432 26.3536C27.8821 27.5168 28.0037 28.6973 27.9516 29.8605C27.7953 33.3675 27.5696 36.8918 27.3266 40.3987C27.2398 41.5619 27.0835 42.7251 26.8925 43.8883C26.8231 44.2876 26.6842 44.7043 26.4585 45.0168C25.8509 45.9022 24.7398 45.8327 24.3057 44.8779C24.0627 44.3397 23.9585 43.68 23.9585 43.0897C23.8717 41.1452 24.1321 31.4751 24.3578 28.5932Z" fill="#FF99C9"/>
</svg>
