<svg width="240" height="240" viewBox="0 0 240 240" fill="none" xmlns="http://www.w3.org/2000/svg">
<path d="M143 73.7918C139.208 68.3751 135 62.8751 131.417 56.9584C130.042 54.7084 128.917 50.8751 129.958 49.0001C131.042 47.0834 134.917 45.6668 137.458 45.8334C146.375 46.3751 155.25 47.4584 164.083 48.8751C167.542 49.4168 169.583 48.4168 171.958 46.2501C179.875 38.9168 187.833 31.6251 196.042 24.7084C198.042 23.0001 202.125 21.2918 203.708 22.2084C205.792 23.4168 207.375 27.2084 207.375 29.9168C207.375 37.3334 206.667 44.7918 205.875 52.2084C205.5 55.6251 204.75 56.5418 209.875 57.8751C215.625 59.3751 221.458 60.6668 227.042 62.7084C229 63.4168 231.417 65.8334 231.625 67.7084C231.875 69.5834 230.167 72.7918 228.458 73.7084C221.458 77.4168 214.208 80.6251 206.875 83.6251C204.083 84.7501 202.667 85.8751 202.25 89.0418C200.625 102.375 198.667 115.625 196.792 128.917C196.625 130.083 195.667 138.542 190.75 138.5C188.625 138.5 186.625 138.5 183.625 134.625C175.875 123.875 168.458 112.875 161.208 101.792C159.292 98.8751 157.625 97.8334 154.083 98.7501C146.083 100.875 138 102.667 129.875 104.25C127.875 104.625 124.708 106.042 123.458 103.208C122.417 101.333 124.083 99.0418 125.208 97.5001C130.875 89.6251 136.833 81.9168 143 73.7918ZM195.583 63.7501C187.458 62.2084 180 60.6668 172.5 59.4168C171.417 59.2084 169.833 59.7501 169 60.5001C163.792 65.2918 158.708 70.2918 153.458 75.3334C156.125 79.3334 158.25 82.8751 160.792 86.1251C161.542 87.1251 163.583 87.9584 164.75 87.6668C173.708 85.2918 182.583 82.7084 191.417 79.9584C192.542 79.6251 193.958 78.1668 194.167 77.0834C194.875 72.8751 195.125 68.5834 195.583 63.7501ZM188.083 125.833C189.75 112.583 191.25 100.792 192.833 88.5001C184 91.0834 175.833 93.4584 166.958 96.0418C174.042 106.042 180.667 115.375 188.083 125.833ZM198.958 32.4584C191.667 39.1668 185.417 44.9168 178.417 51.3334C185.042 52.5834 190.625 53.6668 196.667 54.7918C197.417 47.4168 198.083 40.6251 198.958 32.4584ZM160.375 56.8751C152.75 55.8751 146.333 55.0001 138.458 53.9584C142.458 59.4584 145.625 63.7501 148.833 68.1251C152.625 64.4584 156.042 61.1251 160.375 56.8751ZM219.167 68.5834C214.458 67.6251 209.75 66.6668 204.75 65.6668C204.375 69.3751 204.083 72.3751 203.708 76.2084C209.583 73.7918 219.25 68.9584 219.167 68.5834ZM137.875 92.8334C138.083 93.1668 148.25 91.5834 153.625 90.3751C151.542 87.2084 149.875 84.6668 147.917 81.7501C144.25 85.8334 141.083 89.3334 137.875 92.8334Z" fill="#FF80BC"/>
<path d="M82.5831 182.042C77.3748 179.376 72.1665 176.876 67.1248 174.042C60.7915 170.542 60.5831 165.459 67.0415 162.167C73.7915 158.709 80.9165 155.751 88.1665 153.584C91.8331 152.459 95.5831 150.417 95.5831 150.417C95.5831 150.417 97.7915 145.751 98.3748 144.167C100.791 137.667 103.958 131.417 107.041 125.209C110.416 118.376 115.666 118.001 119.666 124.584C122.916 129.917 125.375 135.751 128.416 141.792C135.541 140.542 143 139.292 150.458 137.917C154 137.292 158.333 136.459 159.583 140.376C160.416 143.001 159.166 147.334 157.291 149.626C152.958 155.042 147.916 159.917 142.75 164.542C139.583 167.376 138.833 169.667 140.5 173.792C143.791 182.084 146.5 190.667 148.916 199.251C149.583 201.584 149.166 205.417 147.666 206.834C146.125 208.251 142.25 208.459 139.958 207.626C130.958 204.334 122.041 200.626 113.333 196.542C109.666 194.834 107.458 195.376 104.583 197.917C97.4998 204.167 90.2915 210.292 82.7915 216.042C80.9165 217.459 77.9581 218.709 75.2498 217.834C72.8331 217.376 73.4165 212.834 73.9581 210.709C76.4581 201.251 79.4998 192.001 82.5831 182.042ZM92.7498 178.334C97.1665 180.376 100.958 182.376 104.958 183.917C106.166 184.376 108.291 184.042 109.333 183.251C114.833 178.959 120.166 174.501 125.375 169.876C126.333 169.042 127.541 168.334 126.75 165.834C125.458 161.626 123.625 157.542 121.833 153.001C114.958 154.876 108.416 156.584 102 158.584C100.833 158.959 100.375 158.751 99.1665 161.626C96.8748 166.876 94.9998 172.376 92.7498 178.334ZM115.583 188.792C123.333 191.792 130.25 194.459 138.291 197.542C135.5 189.542 133.166 182.959 130.625 175.751C125.541 180.167 120.958 184.126 115.583 188.792ZM104.291 148.209C109.666 146.751 113.875 145.584 118.625 144.292C116.708 139.501 115.041 135.251 112.791 129.667C109.666 136.501 107.208 141.834 104.291 148.209ZM84.2081 202.792C84.4581 202.959 94.9581 195.084 100.375 190.667C96.6665 188.876 93.6248 187.376 90.1665 185.709C88.0831 191.751 86.1248 197.292 84.2081 202.792ZM135.166 159.334C139.25 155.376 143.375 151.334 147.625 147.251C142.458 148.376 137.25 149.542 131.583 150.751C132.958 154.084 134.166 156.917 135.166 159.334ZM90.6665 161.792C84.1248 164.251 79.0415 166.126 72.8331 168.459C77.7081 170.917 81.4581 172.834 85.5831 174.876C87.2081 170.709 88.6665 166.917 90.6665 161.792Z" fill="#FF80BC"/>
<path d="M69.1249 52.9575C76.4999 50.4158 83.6249 47.7075 90.8749 45.5408C92.9999 44.9158 96.6666 44.9158 97.5416 46.0408C99.4999 48.5408 98.7499 51.3742 97.6249 53.1242C92.3333 61.4992 86.6666 69.6658 80.7499 77.6242C78.3333 80.8325 77.4166 83.4992 78.7499 87.5408C81.0833 94.4158 82.9583 101.499 84.4166 108.624C84.9166 111.041 84.4583 114.874 82.8749 116.207C81.3333 117.499 77.4999 117.166 75.2083 116.249C69.6666 114.124 64.2916 111.416 59.0833 108.582C55.7083 106.749 53.4583 107.124 50.4166 109.707C45.1249 114.166 39.3332 118.124 33.4582 121.832C28.4166 124.999 25.1249 123.582 25.5416 118.082C25.8332 114.916 25.9582 111.541 26.5832 108.332C27.2499 104.749 29.1249 97.0825 29.0416 96.3325C23.9999 94.4575 18.6249 92.7908 13.5416 90.4992C11.3749 89.4992 8.45825 87.2075 8.41658 85.4158C8.33325 83.2075 10.3332 79.9992 12.3749 78.7908C19.4999 74.6242 38.7499 65.6242 38.7499 65.6242C40.6249 60.5825 42.9583 51.7075 44.6666 46.6242C46.4583 41.3742 48.2499 36.1242 50.1666 30.9575C50.9166 28.9575 53.1249 26.2492 54.7499 26.1658C56.4999 26.0825 59.2083 28.3325 60.0833 30.2075C63.3333 37.4575 65.9999 44.9575 69.1249 52.9575ZM38.7499 91.8325C42.9999 93.5825 46.6249 95.1658 50.3332 96.5408C51.2916 96.8742 52.9166 97.0408 53.4582 96.4992C57.9999 91.9158 62.4166 87.1658 66.7499 82.4158C67.1249 82.0408 67.1666 81.0825 66.9999 80.4992C65.4583 75.1658 63.8749 69.8742 62.2499 64.4158C56.5832 66.7908 51.6666 68.7492 46.8749 70.9575C45.4999 71.5825 43.8749 72.8325 43.4583 74.1242C41.7083 79.7908 40.3749 85.5825 38.7499 91.8325ZM74.7499 73.3742C80.0833 66.5408 88.7083 53.9992 88.3749 53.6658C82.6666 56.0408 76.9166 58.3742 70.9999 60.8325C72.2083 64.8742 73.2916 68.4992 74.7499 73.3742ZM46.9166 61.9158C51.9166 59.7908 55.8332 58.1658 60.0416 56.3742C58.2499 50.6658 56.5832 45.2492 54.4999 38.6242C51.8332 46.8325 49.5416 53.8325 46.9166 61.9158ZM59.9583 100.916C65.2499 103.291 69.9166 105.374 75.4166 107.874C73.4999 101.666 71.9166 96.5408 70.1666 90.9992C66.5833 94.4575 63.5833 97.3742 59.9583 100.916ZM34.9999 75.9575C28.9999 78.9158 24.1249 81.3325 17.9999 84.3325C23.4166 86.2492 27.3749 87.6242 31.4999 89.0408C32.6249 84.7492 33.6249 81.0825 34.9999 75.9575ZM32.9582 112.041C33.3749 112.332 42.2082 106.666 46.8332 103.041C42.9166 101.499 40.0833 100.416 36.8333 99.1658C35.4583 103.791 34.2082 107.916 32.9582 112.041Z" fill="#FF80BC"/>
</svg>
